# xmcd
#
# Track frame offsets:
#	150
#	15882
#	34478
#	49224
#	64050
#	83099
#	98810
#	112927
#	126696
#	140618
#
# Disc length: 2089 seconds
#
# Revision: 1
# Processed by: cddbd v1.5.2PL0 Copyright (c) Steve Scherf et al.
# Submitted via: audiograbber 1.83.01
#
DISCID=8608270a
DTITLE=Craig Campbell - Craig Campbell
DYEAR=2006
DGENRE=Country
TTITLE0=Somebody's Somebody
TTITLE1=Circus Clown
TTITLE2=Natural Want To
TTITLE3=Johnny's Cash
TTITLE4=Will You Marry Me? (Duet w/ Mindy Ellis)
TTITLE5=My Next Future New Ex-Wife
TTITLE6=Hundred Dollar Buzz
TTITLE7=That Does It
TTITLE8=Second Hand Smoke
TTITLE9=Help Me Cry
EXTD=
EXTT0=
EXTT1=
EXTT2=
EXTT3=
EXTT4=
EXTT5=
EXTT6=
EXTT7=
EXTT8=
EXTT9=
PLAYORDER=
